<svg id="Capa_1" fill="white" enable-background="new 0 0 512 512" height="21" viewBox="0 0 512 512" width="21" 
xmlns="http://www.w3.org/2000/svg"><g>
<path d="m279.496 189.273c-5.38-8.381-9.9-17.364-13.45-26.816l-33.542 16.771c5.38 8.381 9.9 17.364 13.45 26.816z"/><path d="m245.954 305.957c-3.55 9.453-8.069 18.435-13.45 26.816l33.542 16.771c3.55-9.453 8.069-18.435 13.45-26.816z"/><circle cx="399.5" cy="112.5" r="37.5"/><path d="m399.5 225c62.132 0 112.5-50.368 112.5-112.5s-50.368-112.5-112.5-112.5-112.5 50.368-112.5 112.5 50.368 112.5 112.5 112.5zm0-180c37.22 0 67.5 30.28 67.5 67.5s-30.28 67.5-67.5 67.5-67.5-30.28-67.5-67.5 30.28-67.5 67.5-67.5z"/><circle cx="112.5" cy="256" r="37.5"/><path d="m225 256c0-62.132-50.368-112.5-112.5-112.5s-112.5 50.368-112.5 112.5 50.368 112.5 112.5 112.5 112.5-50.368 112.5-112.5zm-112.5 67.5c-37.22 0-67.5-30.28-67.5-67.5s30.28-67.5 67.5-67.5 67.5 30.28 67.5 67.5-30.28 67.5-67.5 67.5z"/><circle cx="399.5" cy="399.5" r="37.5"/><path d="m399.5 287c-62.132 0-112.5 50.368-112.5 112.5s50.368 112.5 112.5 112.5 112.5-50.368 112.5-112.5-50.368-112.5-112.5-112.5zm0 180c-37.22 0-67.5-30.28-67.5-67.5s30.28-67.5 67.5-67.5 67.5 30.28 67.5 67.5-30.28 67.5-67.5 67.5z"/></g></svg>