<svg id="Capa_1" enable-background="new 0 0 512 512" height="51" viewBox="0 0 512 512" width="51" xmlns="http://www.w3.org/2000/svg"><g><g><path d="m432.509 178.218c4.142 0 7.5-3.358 7.5-7.5v-143.218c0-15.164-12.336-27.5-27.5-27.5h-313.018c-15.164 0-27.5 12.336-27.5 27.5v457c0 15.164 12.336 27.5 27.5 27.5h313.019c15.164 0 27.5-12.336 27.5-27.5v-279.957c0-4.142-3.358-7.5-7.5-7.5s-7.5 3.358-7.5 7.5v279.957c0 6.893-5.607 12.5-12.5 12.5h-313.019c-6.893 0-12.5-5.607-12.5-12.5v-457c0-6.893 5.607-12.5 12.5-12.5h67.828v20.613h-40.003c-9.649 0-17.5 7.851-17.5 17.5v271.27c0 4.142 3.358 7.5 7.5 7.5s7.5-3.358 7.5-7.5v-271.27c0-1.378 1.122-2.5 2.5-2.5h41.037c2.42 6.768 8.877 11.632 16.466 11.632h79.172c4.142 0 7.5-3.358 7.5-7.5s-3.358-7.5-7.5-7.5h-79.172c-1.378 0-2.5-1.122-2.5-2.5v-29.745h147.362v29.745c0 1.378-1.122 2.5-2.5 2.5h-29.366c-4.142 0-7.5 3.358-7.5 7.5s3.358 7.5 7.5 7.5h29.366c7.589 0 14.047-4.865 16.466-11.632h41.037c1.378 0 2.5 1.122 2.5 2.5v400.672c0 1.378-1.122 2.5-2.5 2.5h-257.368c-1.378 0-2.5-1.122-2.5-2.5v-95.578c0-4.142-3.358-7.5-7.5-7.5s-7.5 3.358-7.5 7.5v95.578c0 9.649 7.851 17.5 17.5 17.5h257.368c9.649 0 17.5-7.851 17.5-17.5v-400.672c0-9.649-7.851-17.5-17.5-17.5h-40.003v-20.613h67.828c6.893 0 12.5 5.607 12.5 12.5v143.218c0 4.142 3.358 7.5 7.5 7.5z"/><path d="m228.129 23.623c-4.142 0-7.5 3.358-7.5 7.5s3.358 7.5 7.5 7.5h.104c4.142 0 7.5-3.358 7.5-7.5s-3.358-7.5-7.5-7.5z"/><path d="m283.871 38.623c4.142 0 7.5-3.358 7.5-7.5s-3.358-7.5-7.5-7.5h-.104c-4.142 0-7.5 3.358-7.5 7.5s3.358 7.5 7.5 7.5z"/><path d="m163.052 387.476 15.487-9.404 20.495 18.764c1.428 1.307 3.244 1.968 5.065 1.968 1.618 0 3.24-.521 4.598-1.575l18.158-14.093 18.892 14.169c1.334 1 2.917 1.5 4.5 1.5 1.599 0 3.198-.51 4.538-1.529l33.081-25.142 71.136 23.865c3.926 1.319 8.179-.797 9.496-4.725 1.318-3.927-.798-8.178-4.725-9.496l-74.899-25.127c-2.353-.791-4.946-.364-6.923 1.139l-31.733 24.118-11.076-8.307 57.154-44.361 13.518 17.303c2.396 3.067 6.739 3.792 10.001 1.669l45.665-29.718c3.472-2.259 4.455-6.905 2.195-10.377-2.259-3.473-6.907-4.454-10.377-2.195l-39.899 25.966-13.885-17.773c-2.544-3.256-7.243-3.841-10.509-1.308l-66.304 51.463-16.409-12.307c-3.313-2.484-8.015-1.813-10.5 1.5s-1.813 8.015 1.5 10.5l13.123 9.842-9.916 7.697-19.978-18.291c-2.458-2.25-6.106-2.61-8.957-.879l-20.295 12.323c-3.541 2.15-4.668 6.763-2.518 10.303 2.147 3.541 6.759 4.668 10.301 2.518z"/><path d="m153.856 432.723h207.531c4.142 0 7.5-3.358 7.5-7.5s-3.358-7.5-7.5-7.5h-207.531c-4.142 0-7.5 3.358-7.5 7.5s3.358 7.5 7.5 7.5z"/><path d="m159.159 334.54h9.423c4.142 0 7.5-3.358 7.5-7.5s-3.358-7.5-7.5-7.5h-9.423c-4.142 0-7.5 3.358-7.5 7.5s3.358 7.5 7.5 7.5z"/><path d="m159.159 310.166h9.423c4.142 0 7.5-3.358 7.5-7.5s-3.358-7.5-7.5-7.5h-9.423c-4.142 0-7.5 3.358-7.5 7.5s3.358 7.5 7.5 7.5z"/><path d="m146.356 265.671c0 4.142 3.358 7.5 7.5 7.5h207.531c4.142 0 7.5-3.358 7.5-7.5s-3.358-7.5-7.5-7.5h-207.531c-4.142 0-7.5 3.358-7.5 7.5z"/><path d="m264.36 123.395v-4.381c0-4.142-3.358-7.5-7.5-7.5s-7.5 3.358-7.5 7.5v4.381c0 4.142 3.358 7.5 7.5 7.5s7.5-3.358 7.5-7.5z"/><path d="m273.802 119.013v4.381c0 4.142 3.358 7.5 7.5 7.5s7.5-3.358 7.5-7.5v-4.381c0-4.142-3.358-7.5-7.5-7.5s-7.5 3.358-7.5 7.5z"/><path d="m313.243 123.395v-4.381c0-4.142-3.358-7.5-7.5-7.5s-7.5 3.358-7.5 7.5v4.381c0 4.142 3.358 7.5 7.5 7.5s7.5-3.358 7.5-7.5z"/><path d="m337.685 123.395v-4.381c0-4.142-3.358-7.5-7.5-7.5s-7.5 3.358-7.5 7.5v4.381c0 4.142 3.358 7.5 7.5 7.5s7.5-3.358 7.5-7.5z"/><path d="m362.126 123.395v-4.381c0-4.142-3.358-7.5-7.5-7.5s-7.5 3.358-7.5 7.5v4.381c0 4.142 3.358 7.5 7.5 7.5s7.5-3.358 7.5-7.5z"/><path d="m284.635 152.995c0 4.142 3.358 7.5 7.5 7.5h62.491c4.142 0 7.5-3.358 7.5-7.5s-3.358-7.5-7.5-7.5h-62.491c-4.142 0-7.5 3.358-7.5 7.5z"/><path d="m231.055 196.968c0 4.142 3.358 7.5 7.5 7.5h116.072c4.142 0 7.5-3.358 7.5-7.5s-3.358-7.5-7.5-7.5h-116.072c-4.142 0-7.5 3.358-7.5 7.5z"/><path d="m238.555 231.045h116.072c4.142 0 7.5-3.358 7.5-7.5s-3.358-7.5-7.5-7.5h-116.072c-4.142 0-7.5 3.358-7.5 7.5s3.358 7.5 7.5 7.5z"/><path d="m169.159 156.956h23.973c9.649 0 17.5-7.851 17.5-17.5v-23.973c0-9.649-7.851-17.5-17.5-17.5h-23.973c-9.649 0-17.5 7.851-17.5 17.5v23.973c0 9.649 7.851 17.5 17.5 17.5zm-2.5-41.473c0-1.378 1.122-2.5 2.5-2.5h23.973c1.378 0 2.5 1.122 2.5 2.5v23.973c0 1.378-1.122 2.5-2.5 2.5h-23.973c-1.378 0-2.5-1.122-2.5-2.5z"/><path d="m151.659 213.545c0 9.649 7.851 17.5 17.5 17.5h23.973c9.649 0 17.5-7.851 17.5-17.5v-23.973c0-9.649-7.851-17.5-17.5-17.5h-23.973c-9.649 0-17.5 7.851-17.5 17.5zm15-23.973c0-1.378 1.122-2.5 2.5-2.5h23.973c1.378 0 2.5 1.122 2.5 2.5v23.973c0 1.378-1.122 2.5-2.5 2.5h-23.973c-1.378 0-2.5-1.122-2.5-2.5z"/></g></g></svg>