<svg id="Capa_1" enable-background="new 0 0 512 512" height="51" viewBox="0 0 512 512" width="51" xmlns="http://www.w3.org/2000/svg"><g><path d="m301 147h64v64h-64z"/><path d="m301 301h64v64h-64z"/><path d="m147 147h64v64h-64z"/><path d="m147 301h64v64h-64z"/><path d="m437.02 74.98c-48.353-48.351-112.64-74.98-181.02-74.98s-132.667 26.629-181.02 74.98c-48.351 48.353-74.98 112.64-74.98 181.02s26.629 132.667 74.98 181.02c48.353 48.351 112.64 74.98 181.02 74.98s132.667-26.629 181.02-74.98c48.351-48.353 74.98-112.64 74.98-181.02s-26.629-132.667-74.98-181.02zm-166.02 320.02v-124h124v124zm124-154h-124v-124h124zm-278 0v-124h124v124zm124 30v124h-124v-124z"/></g></svg>