<?xml version="1.0" encoding="iso-8859-1"?>
<!-- Generator: Adobe Illustrator 16.0.0, SVG Export Plug-In . SVG Version: 6.00 Build 0)  -->
<!DOCTYPE svg PUBLIC "-//W3C//DTD SVG 1.1//EN" "http://www.w3.org/Graphics/SVG/1.1/DTD/svg11.dtd">
<svg version="1.1" id="Capa_1" xmlns="http://www.w3.org/2000/svg" xmlns:xlink="http://www.w3.org/1999/xlink" x="0px" y="0px"
	 width="47.388px" height="47.387px" viewBox="0 0 47.388 47.387" style="enable-background:new 0 0 47.388 47.387;"
	 xml:space="preserve">
<g>
	<g>
		<path d="M43.016,23.372c0.072-0.677,0.112-1.363,0.112-2.059c0-0.573-0.037-1.136-0.086-1.696c3.075-2.773,4.707-5.47,3.795-7.578
			c-0.701-1.618-2.84-2.474-6.187-2.474c-0.469,0-0.964,0.022-1.472,0.054c-3.552-4.691-9.162-7.741-15.486-7.741
			c-6.354,0-11.988,3.079-15.536,7.808C7.771,9.668,7.374,9.642,7.007,9.642c-3.754,0-6.105,0.928-6.799,2.683
			c-0.782,1.978,0.645,4.558,4.125,7.493c-0.037,0.495-0.075,0.99-0.075,1.494c0,1.04,0.105,2.052,0.264,3.048
			c-3.496,3.104-4.888,5.777-4.029,7.758c0.701,1.617,2.84,2.474,6.185,2.474c0.842,0,1.755-0.058,2.719-0.162
			c3.555,3.871,8.64,6.315,14.297,6.315c6.096,0,11.537-2.824,15.104-7.229c0.541,0.032,1.08,0.061,1.584,0.061
			c3.754,0,6.104-0.928,6.798-2.682C47.964,28.911,46.524,26.319,43.016,23.372z M10.749,32.95
			c-2.132-2.371-3.624-5.316-4.204-8.584c0.618-0.5,1.277-1,1.976-1.5c3.451,2.214,7.669,4.34,12.245,6.149
			c0.604,0.239,1.203,0.456,1.804,0.679C18.325,31.286,14.226,32.421,10.749,32.95z M7.368,22.095
			c-0.353,0.258-0.698,0.515-1.03,0.773c-0.046-0.513-0.079-1.03-0.079-1.555C6.617,21.575,6.987,21.835,7.368,22.095z
			 M6.338,19.752c0.287-3.221,1.459-6.183,3.263-8.663c3.652,0.349,8.094,1.375,12.699,2.929c-0.601,0.244-1.202,0.493-1.804,0.753
			c-4.498,1.949-8.629,4.201-12,6.517C7.732,20.779,7.008,20.267,6.338,19.752z M21.243,27.806
			c-4.303-1.702-8.266-3.683-11.559-5.747c3.217-2.161,7.1-4.262,11.329-6.095c1.06-0.459,2.115-0.883,3.167-1.287
			c0.653,0.239,1.307,0.477,1.961,0.736c4.601,1.819,8.823,3.957,12.24,6.175c-3.164,2.214-7.246,4.516-12.069,6.604
			c-0.635,0.275-1.268,0.527-1.9,0.783C23.358,28.61,22.301,28.225,21.243,27.806z M26.046,13.988
			c4.279-1.521,8.34-2.531,11.723-2.923c1.779,2.438,2.956,5.342,3.271,8.502c-0.479,0.397-0.995,0.799-1.541,1.207
			c-3.564-2.364-8.014-4.646-12.879-6.569C26.428,14.128,26.237,14.063,26.046,13.988z M26.831,29.385
			c4.593-1.99,9.116-4.459,12.722-7.007c0.501,0.347,0.978,0.696,1.436,1.045c-0.395,3.248-1.683,6.217-3.613,8.664
			c-3.247-0.349-7.07-1.2-11.072-2.478C26.477,29.534,26.653,29.462,26.831,29.385z M41.129,21.312c0,0.194-0.022,0.381-0.029,0.574
			c-0.147-0.107-0.282-0.216-0.434-0.323c0.152-0.116,0.309-0.231,0.458-0.347C41.124,21.249,41.129,21.279,41.129,21.312z
			 M40.651,10.864c2.747,0,4.521,0.601,4.992,1.69c0.522,1.205-0.518,3.152-2.824,5.414c-0.447-2.568-1.396-4.96-2.75-7.078
			C40.26,10.885,40.469,10.864,40.651,10.864z M23.693,3.878c5.231,0,9.92,2.327,13.118,5.987c-3.7,0.52-8.094,1.707-12.637,3.42
			c-4.908-1.768-9.624-2.94-13.612-3.406C13.76,6.211,18.456,3.878,23.693,3.878z M1.418,12.803c0.468-1.183,2.505-1.861,5.59-1.861
			c0.086,0,0.185,0.01,0.271,0.011c-1.381,2.179-2.332,4.647-2.755,7.294C2.083,16.03,0.924,14.051,1.418,12.803z M6.677,33.292
			c-2.746,0-4.52-0.601-4.991-1.69c-0.55-1.268,0.612-3.363,3.131-5.744c0.656,2.721,1.88,5.217,3.548,7.358
			C7.78,33.259,7.209,33.292,6.677,33.292z M23.693,38.747c-4.569,0-8.72-1.781-11.832-4.668c3.77-0.66,8.139-1.943,12.599-3.713
			c4.253,1.455,8.335,2.463,11.871,2.922C33.15,36.641,28.669,38.747,23.693,38.747z M45.969,30.418
			c-0.468,1.184-2.505,1.861-5.589,1.861c-0.201,0-0.43-0.021-0.639-0.025c1.488-2.176,2.536-4.669,3.04-7.354
			C45.282,27.147,46.468,29.155,45.969,30.418z"/>
		<polygon points="41.581,38.778 44.177,36.897 43.62,40.161 46.243,41.875 42.61,42.171 40.977,45.51 40.208,42.223 36.918,42.265 
			39.843,40.239 38.328,36.793 		"/>
		<polygon points="4.414,3.02 5.652,2.122 5.385,3.678 6.637,4.496 4.904,4.638 4.125,6.231 3.757,4.662 2.188,4.682 3.584,3.716 
			2.861,2.072 		"/>
		<polygon points="42.415,4.021 43.653,3.125 43.387,4.68 44.639,5.499 42.905,5.64 42.127,7.233 41.759,5.664 40.189,5.685 
			41.586,4.718 40.862,3.074 		"/>
	</g>
</g>
<g>
</g>
<g>
</g>
<g>
</g>
<g>
</g>
<g>
</g>
<g>
</g>
<g>
</g>
<g>
</g>
<g>
</g>
<g>
</g>
<g>
</g>
<g>
</g>
<g>
</g>
<g>
</g>
<g>
</g>
</svg>
