<svg id="_x33_0" enable-background="new 0 0 64 64" height="512" fill="#ffffff" viewBox="0 0 64 64" width="512" xmlns="http://www.w3.org/2000/svg"><g><path d="m29 29h6v2h-6z"/><path d="m37 29h6v2h-6z"/><path d="m37 36.253c.647-.161 1.316-.253 2-.253 1.424 0 2.79.364 4 1.038v-4.038h-6z"/><path d="m31.496 41h-2.496v6h2.505c-.328-.916-.505-1.886-.505-2.877v-.466c0-.924.174-1.82.496-2.657z"/><path d="m35 37.038v-4.038h-6v6h3.647c.164-.203.338-.399.525-.586.55-.55 1.167-1.008 1.828-1.376z"/><path d="m45 38.586.172-.172c1.557-1.557 3.626-2.414 5.828-2.414v-3h-6z"/><path d="m39.211 5.077c1.191-.231 2.406.074 3.331.836.927.764 1.458 1.889 1.458 3.087v4h2v-3.756c0-3.149-2.238-5.812-5.206-6.193-1.745-.222-3.438.288-4.752 1.444-1.298 1.142-2.042 2.784-2.042 4.505h2.01c.053-1.928 1.378-3.569 3.201-3.923z"/><path d="m29 55h6v-3.141l-1.829-2.048c-.23-.258-.437-.531-.632-.812h-3.539z"/><path d="m19.211 5.077c1.191-.231 2.406.074 3.331.836.927.764 1.458 1.889 1.458 3.087v4h2v-3.756c0-3.149-2.238-5.812-5.206-6.193-1.747-.222-3.438.288-4.752 1.444-1.298 1.142-2.042 2.784-2.042 4.505h2.01c.053-1.928 1.378-3.569 3.201-3.923z"/><path d="m45 29h6v2h-6z"/><path d="m56.828 38.414c.061.061.114.127.172.189v-15.603h-42v28h4v-24h34v9.253c1.436.357 2.755 1.088 3.828 2.161z"/><path d="m15 21h42v-5c0-2.757-2.243-5-5-5h-4v2c0 1.103-.897 2-2 2h-2c-1.103 0-2-.897-2-2v-2h-14v2c0 1.103-.897 2-2 2h-2c-1.103 0-2-.897-2-2v-2h-9.11c1.3 1.272 2.11 3.042 2.11 5z"/><path d="m3 23h2v38h-2z"/><path d="m45.061 55.475c-1.329-1.329-2.061-3.096-2.061-4.975v-.257c0-1.713.667-3.324 1.879-4.536 1.1-1.101 2.564-1.707 4.121-1.707 1.5 0 2.914.563 4 1.589 1.086-1.026 2.5-1.589 4-1.589v-.343c0-1.446-.563-2.806-1.586-3.829-1.179-1.179-2.747-1.828-4.414-1.828s-3.235.649-4.414 1.828l-1.586 1.586-1.586-1.586c-1.179-1.179-2.747-1.828-4.414-1.828s-3.235.649-4.414 1.828c-1.023 1.023-1.586 2.382-1.586 3.829v.466c0 1.609.59 3.156 1.662 4.356l10.338 11.576 2.189-2.451z"/><path d="m24 57v4h19.164l-3.573-4z"/><path d="m57 61v-1.586l-1.586 1.586z"/><path d="m46.837 61h3.749l-1.981-1.981z"/><path d="m59.707 47.121c-1.446-1.446-3.968-1.446-5.414 0l-1.293 1.293-1.293-1.293c-.723-.723-1.685-1.121-2.707-1.121s-1.984.398-2.707 1.121c-.834.834-1.293 1.942-1.293 3.122v.257c0 1.345.524 2.609 1.475 3.561l6.525 6.525 6.525-6.525c.951-.952 1.475-2.216 1.475-3.561v-.257c0-1.18-.459-2.288-1.293-3.122z"/><path d="m22 59.586v-6.586h-6.586z"/><path d="m7 23h2v38h-2z"/><path d="m21 33h6v6h-6z"/><path d="m21 41h6v6h-6z"/><path d="m21 29h6v2h-6z"/><path d="m27 55v-6h-6v2h3v4z"/><path d="m13 52.586v-29.586h-2v38h9.586l-7-7c-.378-.378-.586-.88-.586-1.414z"/><path d="m13 16c0-2.757-2.243-5-5-5s-5 2.243-5 5v5h10z"/></g></svg>