<svg id="_x33_0" enable-background="new 0 0 64 64" height="512" viewBox="0 0 64 64" fill="#ffffff" width="512" xmlns="http://www.w3.org/2000/svg"><path d="m42.899 29h8.101v-12h12v-1c0-2.698-1.537-5.04-3.779-6.208 1.079-.918 1.779-2.268 1.779-3.792 0-2.757-2.243-5-5-5s-5 2.243-5 5c0 1.527.703 2.879 1.785 3.797-1.149.598-2.119 1.494-2.785 2.6-.666-1.106-1.636-2.002-2.785-2.6 1.082-.918 1.785-2.27 1.785-3.797 0-2.757-2.243-5-5-5s-5 2.243-5 5c0 1.524.7 2.874 1.779 3.792-2.242 1.168-3.779 3.51-3.779 6.208v1h12v10h-6.101c-.465-2.279-2.484-4-4.899-4-2.757 0-5 2.243-5 5 0 1.527.703 2.879 1.785 3.797-1.149.598-2.119 1.494-2.785 2.6-.666-1.106-1.636-2.002-2.785-2.6 1.082-.918 1.785-2.27 1.785-3.797 0-2.757-2.243-5-5-5-2.414 0-4.434 1.721-4.899 4h-6.101v-10h12v-1c0-2.698-1.537-5.04-3.779-6.208 1.079-.918 1.779-2.268 1.779-3.792 0-2.757-2.243-5-5-5s-5 2.243-5 5c0 1.527.703 2.879 1.785 3.797-1.149.598-2.119 1.494-2.785 2.6-.666-1.106-1.636-2.002-2.785-2.6 1.082-.918 1.785-2.27 1.785-3.797 0-2.757-2.243-5-5-5s-5 2.243-5 5c0 1.524.7 2.874 1.779 3.792-2.242 1.168-3.779 3.51-3.779 6.208v1h12v12h8.101c.227 1.115.841 2.08 1.678 2.792-2.242 1.168-3.779 3.51-3.779 6.208v1h12v2h-24v6.101c-2.279.465-4 2.485-4 4.899 0 1.524.7 2.874 1.779 3.792-2.242 1.168-3.779 3.51-3.779 6.208v1h14v-1c0-2.698-1.537-5.04-3.779-6.208 1.079-.918 1.779-2.268 1.779-3.792 0-2.414-1.721-4.434-4-4.899v-4.101h22v4.101c-2.279.465-4 2.484-4 4.899 0 1.524.7 2.874 1.779 3.792-2.242 1.168-3.779 3.51-3.779 6.208v1h14v-1c0-2.698-1.537-5.04-3.779-6.208 1.079-.918 1.779-2.268 1.779-3.792 0-2.414-1.721-4.434-4-4.899v-4.101h22v4.101c-2.279.465-4 2.484-4 4.899 0 1.524.7 2.874 1.779 3.792-2.242 1.168-3.779 3.51-3.779 6.208v1h14v-1c0-2.698-1.537-5.04-3.779-6.208 1.079-.918 1.779-2.268 1.779-3.792 0-2.414-1.721-4.434-4-4.899v-6.101h-24v-2h12v-1c0-2.698-1.537-5.04-3.779-6.208.836-.712 1.451-1.677 1.678-2.792zm10.101-23c0-1.654 1.346-3 3-3s3 1.346 3 3-1.346 3-3 3-3-1.346-3-3zm3 5c2.415 0 4.435 1.721 4.899 4h-9.799c.465-2.279 2.485-4 4.9-4zm-15-5c0-1.654 1.346-3 3-3s3 1.346 3 3-1.346 3-3 3-3-1.346-3-3zm-1.899 9c.465-2.279 2.484-4 4.899-4s4.435 1.721 4.899 4zm-22.101-9c0-1.654 1.346-3 3-3s3 1.346 3 3-1.346 3-3 3-3-1.346-3-3zm3 5c2.415 0 4.435 1.721 4.899 4h-9.799c.465-2.279 2.485-4 4.9-4zm-15-5c0-1.654 1.346-3 3-3s3 1.346 3 3-1.346 3-3 3-3-1.346-3-3zm-1.899 9c.464-2.279 2.484-4 4.899-4s4.435 1.721 4.899 4zm19.899 13c0-1.654 1.346-3 3-3s3 1.346 3 3-1.346 3-3 3-3-1.346-3-3zm-1.899 9c.465-2.279 2.484-4 4.899-4s4.435 1.721 4.899 4zm-8.202 24h-9.798c.464-2.279 2.484-4 4.899-4s4.435 1.721 4.899 4zm-1.899-9c0 1.654-1.346 3-3 3s-3-1.346-3-3 1.346-3 3-3 3 1.346 3 3zm25.899 9h-9.799c.465-2.279 2.484-4 4.899-4s4.436 1.721 4.9 4zm-1.899-9c0 1.654-1.346 3-3 3s-3-1.346-3-3 1.346-3 3-3 3 1.346 3 3zm25.899 9h-9.799c.465-2.279 2.484-4 4.899-4s4.436 1.721 4.9 4zm-1.899-9c0 1.654-1.346 3-3 3s-3-1.346-3-3 1.346-3 3-3 3 1.346 3 3zm-16.101-15h-9.799c.465-2.279 2.484-4 4.899-4s4.436 1.721 4.9 4zm-7.899-9c0-1.654 1.346-3 3-3s3 1.346 3 3-1.346 3-3 3-3-1.346-3-3z"/></svg>